<?xml version="1.0" standalone="no"?>
<!DOCTYPE svg PUBLIC "-//W3C//DTD SVG 20010904//EN"
 "http://www.w3.org/TR/2001/REC-SVG-20010904/DTD/svg10.dtd">
<svg version="1.0" xmlns="http://www.w3.org/2000/svg"
 width="1339.000000pt" height="660.000000pt" viewBox="0 0 1339.000000 660.000000"
 preserveAspectRatio="xMidYMid meet">

<g transform="translate(0.000000,660.000000) scale(0.100000,-0.100000)"
fill="#000000" stroke="none">
<path d="M6614 3646 c-29 -13 -71 -41 -94 -62 -41 -37 -100 -126 -100 -151 0
-27 19 -11 41 34 101 208 388 244 491 63 20 -35 48 -54 48 -32 0 11 -29 53
-64 91 -75 81 -217 106 -322 57z"/>
<path d="M270 3580 c-20 -20 -26 -56 -12 -76 4 -5 65 -64 137 -129 72 -66 132
-128 133 -140 8 -45 53 -74 141 -89 l34 -6 -5 44 c-8 69 -37 119 -76 131 -23
6 -62 42 -129 115 -167 183 -181 192 -223 150z m139 -107 c69 -75 78 -90 66
-102 -11 -12 -27 -2 -104 70 -87 80 -100 97 -84 112 18 19 49 -1 122 -80z
m134 -148 c11 -16 13 -26 6 -30 -12 -8 -61 34 -53 46 9 16 29 9 47 -16z"/>
<path d="M3681 3554 c-97 -38 -123 -44 -186 -44 -41 0 -77 -4 -80 -10 -3 -5
-24 -10 -46 -10 l-39 0 0 -69 0 -70 38 -3 37 -3 1 -85 2 -85 38 0 39 0 1 75 1
75 30 3 c17 2 83 -18 161 -48 72 -27 136 -50 142 -50 6 0 10 26 10 59 0 42 4
60 14 64 8 3 22 17 32 32 14 21 14 30 4 55 -7 16 -21 32 -31 35 -16 5 -19 16
-19 66 0 50 -3 59 -17 58 -10 0 -69 -20 -132 -45z m129 -134 c0 -176 2 -172
-61 -146 -19 7 -67 26 -107 41 l-73 27 3 75 3 75 110 44 c61 23 113 43 118 43
4 1 7 -71 7 -159z m-262 -2 l3 -68 -61 0 -60 0 0 70 0 71 58 -3 57 -3 3 -67z
m-140 0 l3 -48 -33 0 c-33 0 -33 0 -31 47 1 27 2 49 2 51 1 2 13 2 29 0 25 -3
27 -7 30 -50z m453 18 c8 -17 8 -29 0 -45 -19 -34 -31 -24 -31 24 0 49 14 59
31 21z m-393 -179 c3 -62 1 -67 -18 -67 -18 0 -20 6 -20 71 0 62 2 70 18 67
14 -3 18 -16 20 -71z"/>
<path d="M6668 3581 c-57 -19 -100 -55 -148 -126 -59 -87 -81 -105 -132 -105
-21 0 -38 -4 -38 -9 0 -16 32 -21 71 -11 38 11 69 41 142 140 45 62 98 90 168
90 71 0 133 -31 173 -87 37 -53 43 -112 21 -207 -10 -43 -15 -88 -11 -106 7
-39 43 -90 62 -90 19 0 18 14 -5 34 -37 34 -44 67 -27 140 18 76 21 162 7 199
-15 39 -70 96 -114 118 -45 23 -128 33 -169 20z"/>
<path d="M9732 3550 c-16 -28 -21 -30 -73 -30 -36 0 -61 -5 -68 -14 -8 -9 -11
-63 -9 -167 l3 -154 265 0 265 0 3 159 c2 121 -1 161 -10 168 -7 4 -39 8 -70
8 -54 0 -59 2 -73 30 l-16 30 -100 0 -100 0 -17 -30z m226 -15 c21 -34 25 -35
82 -35 l60 0 0 -155 0 -155 -250 0 -250 0 0 155 0 155 60 0 c59 0 61 1 81 35
l21 35 86 0 87 0 23 -35z"/>
<path d="M9790 3530 c0 -6 27 -10 60 -10 33 0 60 4 60 10 0 6 -27 10 -60 10
-33 0 -60 -4 -60 -10z"/>
<path d="M9810 3467 c-41 -14 -80 -68 -80 -111 0 -76 79 -138 150 -117 51 15
81 51 87 103 9 91 -71 154 -157 125z m91 -23 c94 -48 55 -194 -52 -194 -100 0
-141 139 -56 190 39 24 68 25 108 4z"/>
<path d="M9917 3331 c-3 -11 -20 -29 -38 -40 -29 -18 -31 -21 -12 -21 20 0 73
51 73 71 0 17 -18 9 -23 -10z"/>
<path d="M10017 3474 c-12 -13 -8 -42 8 -48 25 -9 46 5 43 28 -3 21 -37 34
-51 20z m38 -13 c7 -12 -12 -24 -25 -16 -11 7 -4 25 10 25 5 0 11 -4 15 -9z"/>
<path d="M12700 3360 l0 -160 90 0 90 0 0 160 0 160 -90 0 -90 0 0 -160z m140
100 c0 -5 -22 -10 -50 -10 -27 0 -50 5 -50 10 0 6 23 10 50 10 28 0 50 -4 50
-10z m0 -40 c0 -5 -22 -10 -50 -10 -27 0 -50 5 -50 10 0 6 23 10 50 10 28 0
50 -4 50 -10z m-26 -89 c10 -16 -5 -41 -24 -41 -19 0 -34 25 -24 41 3 5 14 9
24 9 10 0 21 -4 24 -9z"/>
<path d="M12905 3415 l0 -105 193 0 192 0 0 105 0 105 -192 0 -193 0 0 -105z"/>
<path d="M6659 3467 c-19 -12 -51 -48 -71 -79 -51 -76 -109 -124 -170 -138
-57 -14 -52 -37 6 -26 60 11 127 65 181 146 40 60 58 77 88 87 47 16 90 7 122
-24 39 -40 46 -81 28 -187 -9 -51 -13 -109 -9 -127 8 -45 42 -99 61 -99 12 0
9 9 -11 40 -28 42 -28 59 -9 255 5 47 2 68 -12 95 -40 76 -135 103 -204 57z"/>
<path d="M7007 3387 c4 -45 1 -80 -11 -121 -17 -57 -14 -85 5 -56 25 40 40
180 23 224 -14 36 -23 12 -17 -47z"/>
<path d="M6692 3374 c-12 -8 -31 -32 -41 -52 -25 -49 -108 -126 -165 -154 -25
-12 -46 -28 -46 -35 0 -17 4 -17 49 6 68 35 139 99 177 161 28 46 42 60 61 60
75 0 36 -191 -62 -299 -34 -38 -44 -61 -26 -61 27 0 103 113 131 196 28 81 26
138 -5 169 -28 29 -42 31 -73 9z"/>
<path d="M6674 3229 c-29 -57 -106 -145 -135 -154 -19 -6 -27 -35 -11 -35 18
0 100 72 131 115 28 39 61 104 61 120 0 3 -4 5 -10 5 -5 0 -21 -23 -36 -51z"/>
<path d="M12906 3265 c5 -13 36 -15 195 -15 161 0 189 2 189 15 0 13 -28 15
-195 15 -169 0 -194 -2 -189 -15z"/>
<path d="M13030 3210 c0 -6 28 -10 64 -10 36 0 68 5 71 10 4 6 -20 10 -64 10
-41 0 -71 -4 -71 -10z"/>
<path d="M6775 3090 c-13 -21 -24 -72 -18 -86 9 -24 21 -16 26 19 3 17 8 42
12 55 7 22 -8 32 -20 12z"/>
</g>
</svg>
