<?xml version="1.0" encoding="UTF-8" standalone="no"?>
<svg
   viewBox="0 0 18.000002 18"
   version="1.1"
   id="svg13"
   sodipodi:docname="ig.svg"
   width="18.000002"
   height="18"
   inkscape:version="1.1 (c68e22c387, 2021-05-23)"
   xmlns:inkscape="http://www.inkscape.org/namespaces/inkscape"
   xmlns:sodipodi="http://sodipodi.sourceforge.net/DTD/sodipodi-0.dtd"
   xmlns="http://www.w3.org/2000/svg"
   xmlns:svg="http://www.w3.org/2000/svg">
  <sodipodi:namedview
     id="namedview15"
     pagecolor="#ffffff"
     bordercolor="#999999"
     borderopacity="1"
     inkscape:pageshadow="0"
     inkscape:pageopacity="0"
     inkscape:pagecheckerboard="0"
     showgrid="false"
     inkscape:zoom="1.3592585"
     inkscape:cx="248.66499"
     inkscape:cy="248.29715"
     inkscape:window-width="1920"
     inkscape:window-height="991"
     inkscape:window-x="-9"
     inkscape:window-y="-9"
     inkscape:window-maximized="1"
     inkscape:current-layer="svg13" />
  <defs
     id="defs4">
    <style
       id="style2">.cls-1{fill:#fff;}</style>
  </defs>
  <g
     id="Layer_2"
     data-name="Layer 2"
     transform="matrix(0.03619036,0,0,0.03619448,-2.9404667e-4,-7.6820937e-4)">
    <g
       id="icons">
      <g
         id="ig">
        <path
           class="cls-1"
           d="m 248.36,497.29 c -36.76,0 -73.52,0.07 -110.28,0 C 70.34,497.12 15.44,452.1 2.45,385.72 a 148.31,148.31 0 0 1 -2.29,-28 Q -0.11,248.72 0.1,139.66 C 0.25,70.37 44.55,15.75 111.37,2.52 A 144.22,144.22 0 0 1 138.76,0.17 Q 248.73,-0.1 358.7,0.12 c 68.3,0.18 123,44.75 136.11,110.93 a 143.41,143.41 0 0 1 2.4,27.38 q 0.29,110.3 0.08,220.57 c -0.13,68 -45,122.87 -111.25,135.88 a 148.39,148.39 0 0 1 -27.39,2.31 c -36.76,0.25 -73.53,0.1 -110.29,0.1 z m 137,-248.83 C 385.32,173.09 324.07,112 248.63,112 a 136.71,136.71 0 1 0 0.46,273.41 C 324.43,385.26 385.48,323.93 385.4,248.46 Z M 398.17,74.57 A 24.92,24.92 0 1 0 422.83,100 25.16,25.16 0 0 0 398.17,74.57 Z"
           id="path6" />
        <path
           class="cls-1"
           d="M 360.5,249 A 111.79,111.79 0 1 1 249.05,136.9 111.32,111.32 0 0 1 360.5,249 Z"
           id="path8" />
      </g>
    </g>
  </g>
</svg>
