<?xml version="1.0" encoding="UTF-8" standalone="no"?>
<svg
   viewBox="0 0 64 64"
   version="1.1"
   id="svg639"
   sodipodi:docname="logo.svg"
   width="64"
   height="64"
   inkscape:version="1.1 (c68e22c387, 2021-05-23)"
   xmlns:inkscape="http://www.inkscape.org/namespaces/inkscape"
   xmlns:sodipodi="http://sodipodi.sourceforge.net/DTD/sodipodi-0.dtd"
   xmlns="http://www.w3.org/2000/svg"
   xmlns:svg="http://www.w3.org/2000/svg">
  <sodipodi:namedview
     id="namedview641"
     pagecolor="#ffffff"
     bordercolor="#999999"
     borderopacity="1"
     inkscape:pageshadow="0"
     inkscape:pageopacity="0"
     inkscape:pagecheckerboard="0"
     showgrid="false"
     inkscape:zoom="0.89774236"
     inkscape:cx="382.06953"
     inkscape:cy="375.94305"
     inkscape:window-width="1920"
     inkscape:window-height="991"
     inkscape:window-x="-9"
     inkscape:window-y="-9"
     inkscape:window-maximized="1"
     inkscape:current-layer="svg639" />
  <defs
     id="defs4">
    <style
       id="style2">.cls-1,.cls-136,.cls-34{fill:none;}.cls-1,.cls-136{stroke:#f7f7f7;stroke-miterlimit:10;stroke-width:20px;}.cls-1{stroke-linecap:square;}.cls-2{fill:#bb1a00;}.cls-3{fill:#c60b00;}.cls-4{fill:#8e1000;}.cls-5{fill:#b01800;}.cls-6{fill:#e01900;}.cls-7{fill:#430d00;}.cls-8{fill:#e51300;}.cls-9{fill:#721900;}.cls-10{fill:#461d00;}.cls-11{fill:#bb0a00;}.cls-12{fill:#9a2700;}.cls-13{fill:#b81400;}.cls-14{fill:#8e1800;}.cls-15{fill:#7b1f00;}.cls-16{fill:#751d00;}.cls-17{fill:#b31400;}.cls-18{fill:#941900;}.cls-19{fill:#cf1100;}.cls-20{fill:#350a00;}.cls-21{fill:#ff2316;}.cls-22{fill:#7e1800;}.cls-23{fill:#a81700;}.cls-24{fill:#9a1500;}.cls-25{fill:#c40b00;}.cls-26{fill:#6d1500;}.cls-27{fill:#ad1800;}.cls-28{fill:#c60500;}.cls-29{fill:#721300;}.cls-30{fill:#a51200;}.cls-31{fill:#a21600;}.cls-32{fill:#4e0b00;}.cls-33{fill:#831200;}.cls-35{fill:#e80600;}.cls-36{fill:#b01d00;}.cls-37{fill:#702500;}.cls-38{fill:#7e1c00;}.cls-39{fill:#c61c00;}.cls-40{fill:#4b1300;}.cls-41{fill:#400003;}.cls-42{fill:#c6000b;}.cls-43{fill:#5f0d00;}.cls-44{fill:#d41100;}.cls-45{fill:#9f1600;}.cls-46{fill:#e21300;}.cls-47{fill:#972600;}.cls-48{fill:#671100;}.cls-49{fill:#a80e00;}.cls-50{fill:#eb2100;}.cls-51{fill:#7e2a00;}.cls-52{fill:#781000;}.cls-53{fill:#a50900;}.cls-54{fill:#b60a00;}.cls-55{fill:#751000;}.cls-56{fill:#380700;}.cls-57{fill:#591600;}.cls-58{fill:#a50004;}.cls-59{fill:#d20b00;}.cls-60{fill:#430700;}.cls-61{fill:#6d0900;}.cls-62{fill:#5c0d00;}.cls-63{fill:#8e0c00;}.cls-64{fill:#300;}.cls-65{fill:#801500;}.cls-66{fill:#d40500;}.cls-67{fill:#460d00;}.cls-68{fill:#620800;}.cls-69{fill:#c40500;}.cls-70{fill:#a20900;}.cls-71{fill:#6d0f00;}.cls-72{fill:#b82e00;}.cls-73{fill:#541000;}.cls-74{fill:#701600;}.cls-75{fill:#4b1500;}.cls-76{fill:#460b00;}.cls-77{fill:#7e0700;}.cls-78{fill:#a50d00;}.cls-79{fill:#910c00;}.cls-80{fill:#a50400;}.cls-81{fill:#891300;}.cls-82{fill:#6a1400;}.cls-83{fill:#971500;}.cls-84{fill:#b02700;}.cls-85{fill:#b81a00;}.cls-86{fill:#9a2200;}.cls-87{fill:#c11b00;}.cls-88{fill:#a52e00;}.cls-89{fill:#8c1b00;}.cls-90{fill:#621300;}.cls-91{fill:#671700;}.cls-92{fill:#7b2900;}.cls-93{fill:#942900;}.cls-94{fill:#922224;}.cls-95{fill:#aa1300;}.cls-96{fill:#b00e00;}.cls-97{fill:#6d1800;}.cls-98{fill:#ee0d00;}.cls-99{fill:#e20000;}.cls-100{fill:#400c00;}.cls-101{fill:#700c00;}.cls-102{fill:#b00004;}.cls-103{fill:#5c0700;}.cls-104{fill:#ad1300;}.cls-105{fill:#2f0500;}.cls-106{fill:#8e0800;}.cls-107{fill:#621800;}.cls-108{fill:#7b1100;}.cls-109{fill:#4b0a00;}.cls-110{fill:#be0a00;}.cls-111{fill:#560c00;}.cls-112{fill:#4b0e00;}.cls-113{fill:#400500;}.cls-114{fill:#c10;}.cls-115{fill:#8e1400;}.cls-116{fill:#c61600;}.cls-117{fill:#c20;}.cls-118{fill:#800e00;}.cls-119{fill:#831900;}.cls-120{fill:#910800;}.cls-121{fill:#750600;}.cls-122{fill:#400900;}.cls-123{fill:#d20500;}.cls-124{fill:#891b00;}.cls-125{fill:#eb000d;}.cls-126{fill:#bb0f00;}.cls-127{fill:#9f0000;}.cls-128{fill:#eb1a00;}.cls-129{fill:#860700;}.cls-130{fill:#670e00;}.cls-131{fill:#3a0800;}.cls-132{fill:#2c1100;}.cls-133{fill:#561100;}.cls-134{fill:#801200;}.cls-135{fill:#832500;}</style>
  </defs>
  <g
     id="Layer_2"
     data-name="Layer 2"
     transform="scale(0.08367435,0.08499336)">
    <g
       id="Логотип">
      <polygon
         class="cls-1"
         points="87.38,53.94 457.41,53.94 695.82,293.43 695.82,661.3 323.64,661.3 88.46,426.13 "
         id="polygon6" />
      <g
         id="Сегментация">
        <polygon
           class="cls-2"
           points="0,591.18 23.73,593.34 10.79,565.29 "
           id="polygon8" />
        <polygon
           class="cls-2"
           points="10.79,565.29 23.73,560.97 21.58,541.56 "
           id="polygon10" />
        <polygon
           class="cls-2"
           points="44.23,573.92 10.79,565.29 23.73,593.34 "
           id="polygon12" />
        <polygon
           class="cls-2"
           points="23.73,560.97 44.23,573.92 10.79,565.29 "
           id="polygon14" />
        <polygon
           class="cls-2"
           points="0,607.36 7.55,607.36 0,591.18 "
           id="polygon16" />
        <polygon
           class="cls-2"
           points="0,591.18 23.73,593.34 7.55,607.36 "
           id="polygon18" />
        <polygon
           class="cls-2"
           points="71.2,538.32 44.23,573.92 23.73,560.97 "
           id="polygon20" />
        <polygon
           class="cls-2"
           points="21.58,541.56 38.84,510.27 23.73,560.97 "
           id="polygon22" />
        <polygon
           class="cls-2"
           points="89.54,538.32 44.23,573.92 71.2,538.32 "
           id="polygon24" />
        <polygon
           class="cls-2"
           points="48.55,539.4 23.73,560.97 38.84,510.27 "
           id="polygon26" />
        <polygon
           class="cls-2"
           points="23.73,560.97 71.2,538.32 48.55,539.4 "
           id="polygon28" />
        <polygon
           class="cls-2"
           points="72.28,495.17 89.54,538.32 48.55,539.4 "
           id="polygon30" />
        <polygon
           class="cls-2"
           points="38.84,510.27 59.33,480.06 48.55,539.4 "
           id="polygon32" />
        <polygon
           class="cls-2"
           points="59.33,480.06 48.55,539.4 72.28,495.17 "
           id="polygon34" />
        <polygon
           class="cls-2"
           points="141.32,507.03 72.28,495.17 89.54,538.32 "
           id="polygon36" />
        <polygon
           class="cls-2"
           points="110.04,455.25 59.33,480.06 72.28,495.17 "
           id="polygon38" />
        <polygon
           class="cls-2"
           points="72.28,495.17 141.32,507.03 110.04,455.25 "
           id="polygon40" />
        <polygon
           class="cls-2"
           points="113.27,415.34 84.15,447.7 110.04,455.25 "
           id="polygon42" />
        <polygon
           class="cls-2"
           points="84.15,447.7 110.04,455.25 59.33,480.06 "
           id="polygon44" />
        <polygon
           class="cls-2"
           points="192.03,483.3 110.04,455.25 141.32,507.03 "
           id="polygon46" />
        <polygon
           class="cls-2"
           points="213.6,392.68 192.03,483.3 110.04,455.25 "
           id="polygon48" />
        <polygon
           class="cls-2"
           points="137.01,414.26 110.04,455.25 113.27,415.34 "
           id="polygon50" />
        <polygon
           class="cls-2"
           points="213.6,392.68 110.04,455.25 137.01,414.26 "
           id="polygon52" />
        <polygon
           class="cls-2"
           points="200.66,498.4 280.49,449.86 192.03,483.3 "
           id="polygon54" />
        <polygon
           class="cls-2"
           points="280.49,449.86 224.39,429.36 192.03,483.3 "
           id="polygon56" />
        <polygon
           class="cls-2"
           points="192.03,483.3 224.39,429.36 213.6,392.68 "
           id="polygon58" />
        <polygon
           class="cls-2"
           points="139.16,382.97 113.27,415.34 137.01,414.26 "
           id="polygon60" />
        <polygon
           class="cls-2"
           points="139.16,382.97 181.24,359.24 137.01,414.26 "
           id="polygon62" />
        <polygon
           class="cls-2"
           points="181.24,359.24 213.6,392.68 137.01,414.26 "
           id="polygon64" />
        <polygon
           class="cls-2"
           points="146.72,366.79 181.24,359.24 139.16,382.97 "
           id="polygon66" />
        <polygon
           class="cls-2"
           points="155.35,309.62 181.24,359.24 146.72,366.79 "
           id="polygon68" />
        <polygon
           class="cls-2"
           points="244.89,298.83 213.6,392.68 181.24,359.24 "
           id="polygon70" />
        <polygon
           class="cls-2"
           points="244.89,298.83 181.24,359.24 155.35,309.62 "
           id="polygon72" />
        <polygon
           class="cls-2"
           points="167.21,262.15 244.89,298.83 155.35,309.62 "
           id="polygon74" />
        <polygon
           class="cls-2"
           points="311.77,385.13 289.12,338.74 213.6,392.68 "
           id="polygon76" />
        <polygon
           class="cls-2"
           points="289.12,338.74 244.89,298.83 213.6,392.68 "
           id="polygon78" />
        <polygon
           class="cls-2"
           points="289.12,204.97 244.89,298.83 167.21,262.15 "
           id="polygon80" />
        <polygon
           class="cls-2"
           points="169.37,223.31 289.12,204.97 167.21,262.15 "
           id="polygon82" />
        <polygon
           class="cls-2"
           points="169.37,223.31 163.98,179.08 289.12,204.97 "
           id="polygon84" />
        <polygon
           class="cls-2"
           points="279.41,116.51 163.98,179.08 289.12,204.97 "
           id="polygon86" />
        <polygon
           class="cls-2"
           points="157.5,138.09 279.41,116.51 163.98,179.08 "
           id="polygon88" />
        <polygon
           class="cls-2"
           points="214.68,98.17 217.92,116.51 279.41,116.51 "
           id="polygon90" />
        <polygon
           class="cls-2"
           points="157.5,138.09 279.41,116.51 217.92,116.51 "
           id="polygon92" />
        <polygon
           class="cls-2"
           points="153.19,98.17 217.92,116.51 157.5,138.09 "
           id="polygon94" />
        <polygon
           class="cls-2"
           points="153.19,85.22 217.92,116.51 153.19,98.17 "
           id="polygon96" />
        <polygon
           class="cls-2"
           points="169.37,85.22 217.92,116.51 153.19,85.22 "
           id="polygon98" />
        <polygon
           class="cls-2"
           points="214.68,98.17 169.37,85.22 217.92,116.51 "
           id="polygon100" />
        <polygon
           class="cls-2"
           points="319.32,98.17 374.34,204.97 279.41,116.51 "
           id="polygon102" />
        <polygon
           class="cls-2"
           points="289.12,204.97 279.41,116.51 374.34,204.97 "
           id="polygon104" />
        <polygon
           class="cls-2"
           points="280.49,261.07 374.34,204.97 289.12,204.97 "
           id="polygon106" />
        <polygon
           class="cls-2"
           points="289.12,204.97 244.89,298.83 280.49,261.07 "
           id="polygon108" />
        <polygon
           class="cls-2"
           points="385.13,280.49 244.89,298.83 280.49,261.07 "
           id="polygon110" />
        <polygon
           class="cls-2"
           points="280.49,261.07 385.13,280.49 374.34,204.97 "
           id="polygon112" />
        <polygon
           class="cls-2"
           points="289.12,338.74 385.13,280.49 244.89,298.83 "
           id="polygon114" />
        <polygon
           class="cls-2"
           points="402.39,391.6 385.13,280.49 289.12,338.74 "
           id="polygon116" />
        <polygon
           class="cls-2"
           points="289.12,338.74 402.39,391.6 311.77,385.13 "
           id="polygon118" />
        <polygon
           class="cls-2"
           points="330.11,477.91 402.39,391.6 311.77,385.13 "
           id="polygon120" />
        <polygon
           class="cls-2"
           points="311.77,385.13 224.39,429.36 280.49,449.86 "
           id="polygon122" />
        <polygon
           class="cls-2"
           points="213.6,392.68 311.77,385.13 224.39,429.36 "
           id="polygon124" />
        <polygon
           class="cls-2"
           points="311.77,385.13 330.11,477.91 280.49,449.86 "
           id="polygon126" />
        <polygon
           class="cls-2"
           points="293.43,541.56 330.11,477.91 280.49,449.86 "
           id="polygon128" />
        <polygon
           class="cls-2"
           points="242.73,538.32 280.49,449.86 200.66,498.4 "
           id="polygon130" />
        <polygon
           class="cls-2"
           points="293.43,541.56 280.49,449.86 242.73,538.32 "
           id="polygon132" />
        <polygon
           class="cls-2"
           points="398.08,62.57 486.54,182.32 319.32,98.17 "
           id="polygon134" />
        <polygon
           class="cls-2"
           points="486.54,182.32 319.32,98.17 374.34,204.97 "
           id="polygon136" />
        <polygon
           class="cls-2"
           points="530.77,57.18 457.41,92.78 486.54,182.32 "
           id="polygon138" />
        <polygon
           class="cls-2"
           points="486.54,182.32 398.08,62.57 457.41,92.78 "
           id="polygon140" />
        <polygon
           class="cls-2"
           points="508.11,24.81 457.41,92.78 398.08,62.57 "
           id="polygon142" />
        <polygon
           class="cls-2"
           points="508.11,24.81 539.4,29.13 457.41,92.78 "
           id="polygon144" />
        <polygon
           class="cls-2"
           points="539.4,29.13 530.77,57.18 457.41,92.78 "
           id="polygon146" />
        <polygon
           class="cls-2"
           points="610.6,4.32 508.11,24.81 539.4,29.13 "
           id="polygon148" />
        <polygon
           class="cls-2"
           points="594.42,124.06 610.6,4.32 539.4,29.13 "
           id="polygon150" />
        <polygon
           class="cls-2"
           points="671.01,0 594.42,124.06 610.6,4.32 "
           id="polygon152" />
        <polygon
           class="cls-2"
           points="733.58,7.55 705.53,39.91 671.01,0 "
           id="polygon154" />
        <polygon
           class="cls-2"
           points="671.01,0 705.53,39.91 594.42,124.06 "
           id="polygon156" />
        <polygon
           class="cls-2"
           points="702.3,163.98 705.53,39.91 594.42,124.06 "
           id="polygon158" />
        <polygon
           class="cls-2"
           points="764.87,39.91 702.3,163.98 705.53,39.91 "
           id="polygon160" />
        <polygon
           class="cls-2"
           points="733.58,7.55 764.87,39.91 705.53,39.91 "
           id="polygon162" />
        <polygon
           class="cls-2"
           points="757.32,22.66 764.87,39.91 733.58,7.55 "
           id="polygon164" />
        <polygon
           class="cls-2"
           points="761.63,65.81 764.87,39.91 702.3,163.98 "
           id="polygon166" />
        <polygon
           class="cls-2"
           points="594.42,124.06 530.77,57.18 539.4,29.13 "
           id="polygon168" />
        <polygon
           class="cls-2"
           points="486.54,182.32 591.18,201.74 530.77,57.18 "
           id="polygon170" />
        <polygon
           class="cls-2"
           points="530.77,57.18 591.18,201.74 594.42,124.06 "
           id="polygon172" />
        <polygon
           class="cls-2"
           points="702.3,163.98 594.42,124.06 591.18,201.74 "
           id="polygon174" />
        <polygon
           class="cls-2"
           points="702.3,163.98 661.3,222.23 591.18,201.74 "
           id="polygon176" />
        <polygon
           class="cls-2"
           points="594.42,278.33 661.3,222.23 591.18,201.74 "
           id="polygon178" />
        <polygon
           class="cls-2"
           points="514.59,264.31 591.18,201.74 486.54,182.32 "
           id="polygon180" />
        <polygon
           class="cls-2"
           points="594.42,278.33 591.18,201.74 514.59,264.31 "
           id="polygon182" />
        <polygon
           class="cls-2"
           points="452.02,307.46 514.59,264.31 486.54,182.32 "
           id="polygon184" />
        <polygon
           class="cls-2"
           points="452.02,307.46 486.54,182.32 374.34,204.97 "
           id="polygon186" />
        <polygon
           class="cls-2"
           points="399.98,391.6 452.02,305.75 370.57,201.2 "
           id="polygon188" />
        <polygon
           class="cls-2"
           points="490.85,352.77 514.59,264.31 452.02,307.46 "
           id="polygon190" />
        <polygon
           class="cls-2"
           points="517.82,320.4 514.59,264.31 490.85,352.77 "
           id="polygon192" />
        <polygon
           class="cls-2"
           points="594.42,278.33 514.59,264.31 517.82,320.4 "
           id="polygon194" />
        <polygon
           class="cls-2"
           points="402.39,391.6 487.62,400.23 452.02,307.46 "
           id="polygon196" />
        <polygon
           class="cls-2"
           points="452.02,307.46 487.62,400.23 490.85,352.77 "
           id="polygon198" />
        <polygon
           class="cls-2"
           points="397,445.54 435.83,468.2 402.39,391.6 "
           id="polygon200" />
        <polygon
           class="cls-2"
           points="402.39,391.6 487.62,400.23 435.83,468.2 "
           id="polygon202" />
        <polygon
           class="cls-2"
           points="487.62,400.23 542.63,453.1 435.83,468.2 "
           id="polygon204" />
        <polygon
           class="cls-2"
           points="487.62,400.23 489.68,370 542.63,453.1 "
           id="polygon206" />
        <polygon
           class="cls-2"
           points="534,498.4 435.83,468.2 542.63,453.1 "
           id="polygon208" />
        <polygon
           class="cls-2"
           points="559.89,462.8 489.77,370.03 542.63,453.1 "
           id="polygon210" />
        <polygon
           class="cls-2"
           points="537.24,418.57 559.89,462.8 489.77,370.03 "
           id="polygon212" />
        <polygon
           class="cls-2"
           points="570.68,486.54 542.63,453.1 534,498.4 "
           id="polygon214" />
        <polygon
           class="cls-2"
           points="542.63,453.1 559.89,462.8 570.68,486.54 "
           id="polygon216" />
        <polygon
           class="cls-2"
           points="577.16,526.45 570.68,486.54 534,498.4 "
           id="polygon218" />
        <polygon
           class="cls-2"
           points="582.55,524.29 570.68,486.54 577.16,526.45 "
           id="polygon220" />
        <polygon
           class="cls-2"
           points="330.11,477.91 402.39,391.6 397,445.54 "
           id="polygon222" />
        <polygon
           class="cls-2"
           points="381.89,530.77 397,445.54 330.11,477.91 "
           id="polygon224" />
        <polygon
           class="cls-2"
           points="309.62,577.16 293.43,541.56 330.11,477.91 "
           id="polygon226" />
        <polygon
           class="cls-2"
           points="309.62,577.16 293.43,541.56 242.73,538.32 "
           id="polygon228" />
        <polygon
           class="cls-2"
           points="371.11,617.07 381.89,551.26 309.62,577.16 "
           id="polygon230" />
        <polygon
           class="cls-2"
           points="330.11,477.91 309.62,577.16 381.89,551.26 "
           id="polygon232" />
        <polygon
           class="cls-2"
           points="381.89,551.26 381.89,530.77 330.11,477.91 "
           id="polygon234" />
        <polygon
           class="cls-2"
           points="439.07,538.32 416.42,514.59 381.89,530.77 "
           id="polygon236" />
        <polygon
           class="cls-2"
           points="403.47,491.93 381.89,530.77 416.42,514.59 "
           id="polygon238" />
        <polygon
           class="cls-2"
           points="397,445.54 381.89,530.77 403.47,491.93 "
           id="polygon240" />
        <polygon
           class="cls-2"
           points="502.72,577.16 371.11,617.07 381.89,551.26 "
           id="polygon242" />
        <polygon
           class="cls-2"
           points="381.89,530.77 502.72,577.16 381.89,551.26 "
           id="polygon244" />
        <polygon
           class="cls-2"
           points="502.72,553.42 470.36,553.42 502.72,577.16 "
           id="polygon246" />
        <polygon
           class="cls-2"
           points="470.36,553.42 381.89,530.77 439.07,538.32 "
           id="polygon248" />
        <polygon
           class="cls-2"
           points="381.89,530.77 502.72,577.16 470.36,553.42 "
           id="polygon250" />
        <polygon
           class="cls-2"
           points="512.43,557.74 502.72,577.16 502.72,553.42 "
           id="polygon252" />
        <polygon
           class="cls-2"
           points="425.05,656.99 430.44,624.62 371.11,617.07 "
           id="polygon254" />
        <polygon
           class="cls-2"
           points="371.11,617.07 502.72,577.16 430.44,624.62 "
           id="polygon256" />
        <polygon
           class="cls-2"
           points="439.07,646.2 425.05,656.99 430.44,624.62 "
           id="polygon258" />
        <polygon
           class="cls-2"
           points="430.44,624.62 440.15,624.62 439.07,646.2 "
           id="polygon260" />
        <polygon
           class="cls-2"
           points="430.44,624.62 450.94,613.84 440.15,624.62 "
           id="polygon262" />
        <polygon
           class="cls-2"
           points="502.06,577.36 450.94,613.84 430.44,624.62 "
           id="polygon264" />
        <polygon
           class="cls-2"
           points="507.57,588.36 450.94,613.84 501.28,574.46 "
           id="polygon266" />
        <polygon
           class="cls-2"
           points="507.03,641.88 498.4,606.28 450.94,613.84 "
           id="polygon268" />
        <polygon
           class="cls-2"
           points="509.19,590.1 498.4,606.28 450.94,613.84 "
           id="polygon270" />
        <polygon
           class="cls-2"
           points="509.19,590.1 544.79,590.1 498.4,606.28 "
           id="polygon272" />
        <polygon
           class="cls-2"
           points="507.03,641.88 549.11,633.25 498.4,606.28 "
           id="polygon274" />
        <polygon
           class="cls-2"
           points="541.56,687.19 549.11,633.25 507.03,641.88 "
           id="polygon276" />
        <polygon
           class="cls-2"
           points="556.66,710.93 581.47,692.59 541.56,687.19 "
           id="polygon278" />
        <polygon
           class="cls-2"
           points="578.24,731.42 581.47,692.59 556.66,710.93 "
           id="polygon280" />
        <polygon
           class="cls-2"
           points="584.71,724.95 578.24,731.42 581.47,692.59 "
           id="polygon282" />
        <polygon
           class="cls-2"
           points="584.71,661.3 581.47,692.59 541.56,687.19 "
           id="polygon284" />
        <polygon
           class="cls-2"
           points="549.11,633.25 584.71,661.3 541.56,687.19 "
           id="polygon286" />
        <polygon
           class="cls-2"
           points="598.73,624.62 584.71,661.3 549.11,633.25 "
           id="polygon288" />
        <polygon
           class="cls-2"
           points="544.79,590.1 498.4,606.28 549.11,633.25 "
           id="polygon290" />
        <polygon
           class="cls-2"
           points="565.29,573.92 530.05,590.1 544.79,590.1 "
           id="polygon292" />
        <polygon
           class="cls-2"
           points="544.79,590.1 598.73,624.62 549.11,633.25 "
           id="polygon294" />
        <polygon
           class="cls-2"
           points="565.29,573.92 627.86,580.39 544.79,590.1 "
           id="polygon296" />
        <polygon
           class="cls-2"
           points="598.73,624.62 617.07,595.5 544.79,590.1 "
           id="polygon298" />
        <polygon
           class="cls-2"
           points="627.86,580.39 617.07,595.5 544.79,590.1 "
           id="polygon300" />
        <polygon
           class="cls-2"
           points="608.44,542.63 627.86,580.39 565.29,573.92 "
           id="polygon302" />
        <polygon
           class="cls-2"
           points="633.25,526.45 650.51,543.71 608.44,542.63 "
           id="polygon304" />
        <polygon
           class="cls-2"
           points="608.44,542.63 650.51,543.71 627.86,580.39 "
           id="polygon306" />
        <polygon
           class="cls-2"
           points="679.64,521.06 627.86,580.39 650.51,543.71 "
           id="polygon308" />
        <polygon
           class="cls-2"
           points="633.25,526.45 661.3,509.19 650.51,543.71 "
           id="polygon310" />
        <polygon
           class="cls-2"
           points="661.3,509.19 679.64,521.06 650.51,543.71 "
           id="polygon312" />
        <polygon
           class="cls-2"
           points="697.98,491.93 679.64,521.06 661.3,509.19 "
           id="polygon314" />
        <polygon
           class="cls-2"
           points="697.98,491.93 727.11,482.22 679.64,521.06 "
           id="polygon316" />
        <polygon
           class="cls-3"
           points="0,591.18 23.73,593.34 10.79,565.29 "
           id="polygon318" />
        <polygon
           class="cls-2"
           points="10.79,565.29 23.73,560.97 21.58,541.56 "
           id="polygon320" />
        <polygon
           class="cls-4"
           points="44.23,573.92 10.79,565.29 23.73,593.34 "
           id="polygon322" />
        <polygon
           class="cls-5"
           points="23.73,560.97 44.23,573.92 10.79,565.29 "
           id="polygon324" />
        <polygon
           class="cls-6"
           points="0,607.36 7.55,607.36 0,591.18 "
           id="polygon326" />
        <polygon
           class="cls-7"
           points="0,591.18 23.73,593.34 7.55,607.36 "
           id="polygon328" />
        <polygon
           class="cls-8"
           points="71.2,538.32 44.23,573.92 23.73,560.97 "
           id="polygon330" />
        <polygon
           class="cls-9"
           points="21.58,541.56 38.84,510.27 23.73,560.97 "
           id="polygon332" />
        <polygon
           class="cls-10"
           points="89.54,538.32 44.23,573.92 71.2,538.32 "
           id="polygon334" />
        <polygon
           class="cls-11"
           points="48.55,539.4 23.73,560.97 38.84,510.27 "
           id="polygon336" />
        <polygon
           class="cls-12"
           points="23.73,560.97 71.2,538.32 48.55,539.4 "
           id="polygon338" />
        <polygon
           class="cls-13"
           points="72.28,495.17 89.54,538.32 48.55,539.4 "
           id="polygon340" />
        <polygon
           class="cls-14"
           points="38.84,510.27 59.33,480.06 48.55,539.4 "
           id="polygon342" />
        <polygon
           class="cls-15"
           points="59.33,480.06 48.55,539.4 72.28,495.17 "
           id="polygon344" />
        <polygon
           class="cls-16"
           points="141.32,507.03 72.28,495.17 89.54,538.32 "
           id="polygon346" />
        <polygon
           class="cls-17"
           points="110.04,455.25 59.33,480.06 72.28,495.17 "
           id="polygon348" />
        <polygon
           class="cls-18"
           points="72.28,495.17 141.32,507.03 110.04,455.25 "
           id="polygon350" />
        <polygon
           class="cls-19"
           points="113.27,415.34 84.15,447.7 110.04,455.25 "
           id="polygon352" />
        <polygon
           class="cls-20"
           points="84.15,447.7 110.04,455.25 59.33,480.06 "
           id="polygon354" />
        <polygon
           class="cls-21"
           points="192.03,483.3 110.04,455.25 141.32,507.03 "
           id="polygon356" />
        <polygon
           class="cls-14"
           points="213.6,392.68 192.03,483.3 110.04,455.25 "
           id="polygon358" />
        <polygon
           class="cls-22"
           points="137.01,414.26 110.04,455.25 113.27,415.34 "
           id="polygon360" />
        <polygon
           class="cls-23"
           points="213.6,392.68 110.04,455.25 137.01,414.26 "
           id="polygon362" />
        <polygon
           class="cls-24"
           points="200.66,498.4 280.49,449.86 192.03,483.3 "
           id="polygon364" />
        <polygon
           class="cls-25"
           points="280.49,449.86 224.39,429.36 192.03,483.3 "
           id="polygon366" />
        <polygon
           class="cls-26"
           points="192.03,483.3 224.39,429.36 213.6,392.68 "
           id="polygon368" />
        <polygon
           class="cls-27"
           points="139.16,382.97 113.27,415.34 137.01,414.26 "
           id="polygon370" />
        <polygon
           class="cls-28"
           points="139.16,382.97 181.24,359.24 137.01,414.26 "
           id="polygon372" />
        <polygon
           class="cls-29"
           points="181.24,359.24 213.6,392.68 137.01,414.26 "
           id="polygon374" />
        <polygon
           class="cls-12"
           points="146.72,366.79 181.24,359.24 139.16,382.97 "
           id="polygon376" />
        <polygon
           class="cls-30"
           points="155.35,309.62 181.24,359.24 146.72,366.79 "
           id="polygon378" />
        <polygon
           class="cls-31"
           points="244.89,298.83 213.6,392.68 181.24,359.24 "
           id="polygon380" />
        <polygon
           class="cls-32"
           points="244.89,298.83 181.24,359.24 155.35,309.62 "
           id="polygon382" />
        <polygon
           class="cls-33"
           points="167.21,262.15 244.89,298.83 155.35,309.62 "
           id="polygon384" />
        <polygon
           class="cls-34"
           points="311.77,385.13 289.12,338.74 213.6,392.68 "
           id="polygon386" />
        <polygon
           class="cls-35"
           points="289.12,338.74 244.89,298.83 213.6,392.68 "
           id="polygon388" />
        <polygon
           class="cls-36"
           points="289.12,204.97 244.89,298.83 167.21,262.15 "
           id="polygon390" />
        <polygon
           class="cls-37"
           points="169.37,223.31 289.12,204.97 167.21,262.15 "
           id="polygon392" />
        <polygon
           class="cls-38"
           points="169.37,223.31 163.98,179.08 289.12,204.97 "
           id="polygon394" />
        <polygon
           class="cls-39"
           points="279.41,116.51 163.98,179.08 289.12,204.97 "
           id="polygon396" />
        <polygon
           class="cls-40"
           points="157.5,138.09 279.41,116.51 163.98,179.08 "
           id="polygon398" />
        <polygon
           class="cls-41"
           points="214.68,98.17 217.92,116.51 279.41,116.51 "
           id="polygon400" />
        <polygon
           class="cls-42"
           points="157.5,138.09 279.41,116.51 217.92,116.51 "
           id="polygon402" />
        <polygon
           class="cls-43"
           points="153.19,98.17 217.92,116.51 157.5,138.09 "
           id="polygon404" />
        <polygon
           class="cls-44"
           points="153.19,85.22 217.92,116.51 153.19,98.17 "
           id="polygon406" />
        <polygon
           class="cls-45"
           points="169.37,85.22 217.92,116.51 153.19,85.22 "
           id="polygon408" />
        <polygon
           class="cls-46"
           points="214.68,98.17 169.37,85.22 217.92,116.51 "
           id="polygon410" />
        <polygon
           class="cls-47"
           points="319.32,98.17 374.34,204.97 279.41,116.51 "
           id="polygon412" />
        <polygon
           class="cls-48"
           points="289.12,204.97 279.41,116.51 374.34,204.97 "
           id="polygon414" />
        <polygon
           class="cls-49"
           points="280.49,261.07 374.34,204.97 289.12,204.97 "
           id="polygon416" />
        <polygon
           class="cls-50"
           points="289.12,204.97 244.89,298.83 280.49,261.07 "
           id="polygon418" />
        <polygon
           class="cls-51"
           points="385.13,280.49 244.89,298.83 280.49,261.07 "
           id="polygon420" />
        <polygon
           class="cls-52"
           points="280.49,261.47 385.67,281.03 374.83,204.97 "
           id="polygon422" />
        <polygon
           class="cls-53"
           points="289.12,338.74 385.13,280.49 244.89,298.83 "
           id="polygon424" />
        <polygon
           class="cls-54"
           points="402.39,391.6 385.13,280.49 289.12,338.74 "
           id="polygon426" />
        <polygon
           class="cls-55"
           points="289.12,338.74 402.39,391.6 311.77,385.13 "
           id="polygon428" />
        <polygon
           class="cls-56"
           points="330.11,477.91 402.39,391.6 311.77,385.13 "
           id="polygon430" />
        <polygon
           class="cls-57"
           points="311.77,385.13 224.39,429.36 280.49,449.86 "
           id="polygon432" />
        <polygon
           class="cls-58"
           points="213.6,392.68 311.77,385.13 224.39,429.36 "
           id="polygon434" />
        <polygon
           class="cls-59"
           points="311.77,385.13 330.11,477.91 280.49,449.86 "
           id="polygon436" />
        <polygon
           class="cls-60"
           points="293.43,541.56 330.11,477.91 280.49,449.86 "
           id="polygon438" />
        <polygon
           class="cls-61"
           points="242.73,538.32 280.49,449.86 200.66,498.4 "
           id="polygon440" />
        <polygon
           class="cls-62"
           points="293.43,541.56 280.49,449.86 242.73,538.32 "
           id="polygon442" />
        <polygon
           class="cls-63"
           points="398.08,62.57 486.54,182.32 319.32,98.17 "
           id="polygon444" />
        <polygon
           class="cls-64"
           points="486.54,182.32 319.32,98.17 374.34,204.97 "
           id="polygon446" />
        <polygon
           class="cls-34"
           points="530.77,57.18 457.41,92.78 486.54,182.32 "
           id="polygon448" />
        <polygon
           class="cls-3"
           points="486.54,182.32 398.08,62.57 457.41,92.78 "
           id="polygon450" />
        <polygon
           class="cls-65"
           points="508.11,24.81 457.41,92.78 398.08,62.57 "
           id="polygon452" />
        <polygon
           class="cls-66"
           points="508.11,24.81 539.4,29.13 457.41,92.78 "
           id="polygon454" />
        <polygon
           class="cls-67"
           points="539.4,29.13 530.77,57.18 457.41,92.78 "
           id="polygon456" />
        <polygon
           class="cls-68"
           points="610.6,4.32 508.11,24.81 539.4,29.13 "
           id="polygon458" />
        <polygon
           class="cls-69"
           points="594.42,124.06 610.6,4.32 539.4,29.13 "
           id="polygon460" />
        <polygon
           class="cls-70"
           points="671.01,0 594.42,124.06 610.6,4.32 "
           id="polygon462" />
        <polygon
           class="cls-71"
           points="733.58,7.55 705.53,39.91 671.01,0 "
           id="polygon464" />
        <polygon
           class="cls-72"
           points="671.01,0 705.53,39.91 594.42,124.06 "
           id="polygon466" />
        <polygon
           class="cls-73"
           points="702.3,163.98 705.53,39.91 594.42,124.06 "
           id="polygon468" />
        <polygon
           class="cls-74"
           points="764.87,39.91 702.3,163.98 705.53,39.91 "
           id="polygon470" />
        <polygon
           class="cls-17"
           points="733.58,7.55 764.87,39.91 705.53,39.91 "
           id="polygon472" />
        <polygon
           class="cls-75"
           points="757.32,22.66 764.87,39.91 733.58,7.55 "
           id="polygon474" />
        <polygon
           class="cls-76"
           points="761.63,65.81 764.87,39.91 702.3,163.98 "
           id="polygon476" />
        <polygon
           class="cls-77"
           points="594.42,124.06 530.77,57.18 539.4,29.13 "
           id="polygon478" />
        <polygon
           class="cls-78"
           points="486.54,182.32 591.18,201.74 530.77,57.18 "
           id="polygon480" />
        <polygon
           class="cls-79"
           points="530.77,57.18 591.18,201.74 594.42,124.06 "
           id="polygon482" />
        <polygon
           class="cls-80"
           points="702.3,163.98 594.42,124.06 591.18,201.74 "
           id="polygon484" />
        <polygon
           class="cls-81"
           points="702.3,163.98 661.3,222.23 591.18,201.74 "
           id="polygon486" />
        <polygon
           class="cls-82"
           points="594.42,278.33 661.3,222.23 591.18,201.74 "
           id="polygon488" />
        <polygon
           class="cls-83"
           points="514.59,264.31 591.18,201.74 486.54,182.32 "
           id="polygon490" />
        <polygon
           class="cls-84"
           points="594.42,278.33 591.18,201.74 514.59,264.31 "
           id="polygon492" />
        <polygon
           class="cls-85"
           points="452.02,307.46 514.59,264.31 486.54,182.32 "
           id="polygon494" />
        <polygon
           class="cls-86"
           points="452.02,307.46 486.54,182.32 374.34,204.97 "
           id="polygon496" />
        <polygon
           class="cls-87"
           points="402.39,391.6 452.02,307.46 374.34,204.97 "
           id="polygon498" />
        <polygon
           class="cls-88"
           points="490.85,352.77 514.59,264.31 452.02,307.46 "
           id="polygon500" />
        <polygon
           class="cls-89"
           points="517.82,320.4 514.59,264.31 490.85,352.77 "
           id="polygon502" />
        <polygon
           class="cls-90"
           points="594.42,278.33 514.59,264.31 517.82,320.4 "
           id="polygon504" />
        <polygon
           class="cls-91"
           points="402.39,391.6 487.62,400.23 452.02,307.46 "
           id="polygon506" />
        <polygon
           class="cls-92"
           points="452.02,307.46 487.62,400.23 490.85,352.77 "
           id="polygon508" />
        <polygon
           class="cls-93"
           points="397,445.54 435.83,468.2 402.39,391.6 "
           id="polygon510" />
        <polygon
           class="cls-67"
           points="402.39,391.6 487.62,400.23 435.83,468.2 "
           id="polygon512" />
        <polygon
           class="cls-94"
           points="487.62,400.23 542.63,453.1 435.83,468.2 "
           id="polygon514" />
        <polygon
           class="cls-95"
           points="487.62,400.23 489.68,370 542.63,453.1 "
           id="polygon516" />
        <polygon
           class="cls-96"
           points="534,498.4 435.83,468.2 542.63,453.1 "
           id="polygon518" />
        <polygon
           class="cls-97"
           points="559.89,462.8 489.77,370.03 542.63,453.1 "
           id="polygon520" />
        <polygon
           class="cls-98"
           points="537.24,418.57 559.89,462.8 489.77,370.03 "
           id="polygon522" />
        <polygon
           class="cls-99"
           points="570.68,486.54 542.63,453.1 534,498.4 "
           id="polygon524" />
        <polygon
           class="cls-100"
           points="542.63,453.1 559.89,462.8 570.68,486.54 "
           id="polygon526" />
        <polygon
           class="cls-101"
           points="577.16,526.45 570.68,486.54 534,498.4 "
           id="polygon528" />
        <polygon
           class="cls-102"
           points="582.55,524.29 570.68,486.54 577.16,526.45 "
           id="polygon530" />
        <polygon
           class="cls-103"
           points="330.11,477.91 402.39,391.6 397,445.54 "
           id="polygon532" />
        <polygon
           class="cls-104"
           points="381.89,530.77 397,445.54 330.11,477.91 "
           id="polygon534" />
        <polygon
           class="cls-105"
           points="309.62,577.16 293.43,541.56 330.11,477.91 "
           id="polygon536" />
        <polygon
           class="cls-106"
           points="309.62,577.16 293.43,541.56 242.73,538.32 "
           id="polygon538" />
        <polygon
           class="cls-4"
           points="371.11,617.07 381.89,551.26 309.62,577.16 "
           id="polygon540" />
        <polygon
           class="cls-107"
           points="330.11,477.91 309.62,577.16 381.89,551.26 "
           id="polygon542" />
        <polygon
           class="cls-108"
           points="381.89,551.26 381.89,530.77 330.11,477.91 "
           id="polygon544" />
        <polygon
           class="cls-63"
           points="439.07,538.32 416.42,514.59 381.89,530.77 "
           id="polygon546" />
        <polygon
           class="cls-53"
           points="403.47,491.93 381.89,530.77 416.42,514.59 "
           id="polygon548" />
        <polygon
           class="cls-109"
           points="397,445.54 381.89,530.77 403.47,491.93 "
           id="polygon550" />
        <polygon
           class="cls-5"
           points="502.72,577.16 371.11,617.07 381.89,551.26 "
           id="polygon552" />
        <polygon
           class="cls-110"
           points="381.89,530.77 502.72,577.16 381.89,551.26 "
           id="polygon554" />
        <polygon
           class="cls-111"
           points="502.72,553.42 470.36,553.42 502.72,577.16 "
           id="polygon556" />
        <polygon
           class="cls-3"
           points="470.36,553.42 381.89,530.77 439.07,538.32 "
           id="polygon558" />
        <polygon
           class="cls-30"
           points="381.89,530.77 502.72,577.16 470.36,553.42 "
           id="polygon560" />
        <polygon
           class="cls-33"
           points="512.43,557.74 502.72,577.16 502.72,553.42 "
           id="polygon562" />
        <polygon
           class="cls-71"
           points="425.05,656.99 430.44,624.62 371.11,617.07 "
           id="polygon564" />
        <polygon
           class="cls-53"
           points="371.11,617.07 502.72,577.16 430.44,624.62 "
           id="polygon566" />
        <polygon
           class="cls-112"
           points="439.07,646.2 425.05,656.99 430.44,624.62 "
           id="polygon568" />
        <polygon
           class="cls-113"
           points="430.44,624.62 440.15,624.62 439.07,646.2 "
           id="polygon570" />
        <polygon
           class="cls-114"
           points="430.44,624.62 450.94,613.84 440.15,624.62 "
           id="polygon572" />
        <polygon
           class="cls-115"
           points="502.06,577.36 450.94,613.84 430.44,624.62 "
           id="polygon574" />
        <polygon
           class="cls-116"
           points="509.19,590.1 450.94,613.84 502.72,577.16 "
           id="polygon576" />
        <polygon
           class="cls-117"
           points="507.03,641.88 498.4,606.28 450.94,613.84 "
           id="polygon578" />
        <polygon
           class="cls-118"
           points="509.19,590.1 498.4,606.28 450.94,613.84 "
           id="polygon580" />
        <polygon
           class="cls-39"
           points="509.19,590.1 544.79,590.1 498.4,606.28 "
           id="polygon582" />
        <polygon
           class="cls-36"
           points="507.03,641.88 549.11,633.25 498.4,606.28 "
           id="polygon584" />
        <polygon
           class="cls-119"
           points="541.56,687.19 549.11,633.25 507.03,641.88 "
           id="polygon586" />
        <polygon
           class="cls-120"
           points="556.66,710.93 581.47,692.59 541.56,687.19 "
           id="polygon588" />
        <polygon
           class="cls-121"
           points="578.24,731.42 581.47,692.59 556.66,710.93 "
           id="polygon590" />
        <polygon
           class="cls-122"
           points="582.55,753 584.71,724.95 578.24,731.42 "
           id="polygon592" />
        <polygon
           class="cls-62"
           points="584.71,724.95 578.24,731.42 581.47,692.59 "
           id="polygon594" />
        <polygon
           class="cls-5"
           points="584.71,661.3 581.47,692.59 541.56,687.19 "
           id="polygon596" />
        <polygon
           class="cls-123"
           points="549.11,633.25 584.71,661.3 541.56,687.19 "
           id="polygon598" />
        <polygon
           class="cls-90"
           points="598.73,624.62 584.71,661.3 549.11,633.25 "
           id="polygon600" />
        <polygon
           class="cls-124"
           points="544.79,590.1 498.4,606.28 549.11,633.25 "
           id="polygon602" />
        <polygon
           class="cls-125"
           points="565.29,573.92 530.05,590.1 544.79,590.1 "
           id="polygon604" />
        <polygon
           class="cls-126"
           points="544.79,590.1 598.73,624.62 549.11,633.25 "
           id="polygon606" />
        <polygon
           class="cls-127"
           points="565.29,573.92 627.86,580.39 544.79,590.1 "
           id="polygon608" />
        <polygon
           class="cls-45"
           points="598.73,624.62 617.07,595.5 544.79,590.1 "
           id="polygon610" />
        <polygon
           class="cls-128"
           points="627.86,580.39 617.07,595.5 544.79,590.1 "
           id="polygon612" />
        <polygon
           class="cls-129"
           points="608.44,542.63 627.86,580.39 565.29,573.92 "
           id="polygon614" />
        <polygon
           class="cls-40"
           points="633.25,526.45 650.51,543.71 608.44,542.63 "
           id="polygon616" />
        <polygon
           class="cls-130"
           points="608.44,542.63 650.51,543.71 627.86,580.39 "
           id="polygon618" />
        <polygon
           class="cls-103"
           points="679.64,521.06 627.86,580.39 650.51,543.71 "
           id="polygon620" />
        <polygon
           class="cls-131"
           points="633.25,526.45 661.3,509.19 650.51,543.71 "
           id="polygon622" />
        <polygon
           class="cls-132"
           points="661.3,509.19 679.64,521.06 650.51,543.71 "
           id="polygon624" />
        <polygon
           class="cls-133"
           points="697.98,491.93 679.64,521.06 661.3,509.19 "
           id="polygon626" />
        <polygon
           class="cls-119"
           points="697.98,491.93 727.11,482.22 679.64,521.06 "
           id="polygon628" />
        <polygon
           class="cls-134"
           points="457.41,92.78 530.77,57.18 486.54,182.32 "
           id="polygon630" />
        <polygon
           class="cls-135"
           points="289.12,338.74 311.77,385.13 213.6,392.68 "
           id="polygon632" />
      </g>
      <line
         class="cls-136"
         x1="323.64001"
         y1="661.29999"
         x2="695.82001"
         y2="661.29999"
         id="line635" />
    </g>
  </g>
</svg>
