<?xml version="1.0" encoding="UTF-8" standalone="no"?>
<svg
   viewBox="0 0 17.999999 18"
   version="1.1"
   id="svg9"
   sodipodi:docname="mail.svg"
   width="18"
   height="18"
   inkscape:version="1.1 (c68e22c387, 2021-05-23)"
   xmlns:inkscape="http://www.inkscape.org/namespaces/inkscape"
   xmlns:sodipodi="http://sodipodi.sourceforge.net/DTD/sodipodi-0.dtd"
   xmlns="http://www.w3.org/2000/svg"
   xmlns:svg="http://www.w3.org/2000/svg">
  <sodipodi:namedview
     id="namedview11"
     pagecolor="#ffffff"
     bordercolor="#999999"
     borderopacity="1"
     inkscape:pageshadow="0"
     inkscape:pageopacity="0"
     inkscape:pagecheckerboard="0"
     showgrid="false"
     inkscape:zoom="1.9085801"
     inkscape:cx="258.30721"
     inkscape:cy="176.83303"
     inkscape:window-width="1920"
     inkscape:window-height="991"
     inkscape:window-x="-9"
     inkscape:window-y="-9"
     inkscape:window-maximized="1"
     inkscape:current-layer="svg9" />
  <defs
     id="defs4">
    <style
       id="style2">.cls-1{fill:#fff;}</style>
  </defs>
  <g
     id="Layer_2"
     data-name="Layer 2"
     transform="scale(0.03484658,0.05082018)">
    <g
       id="icons">
      <path
         id="mail"
         class="cls-1"
         d="m 472.25,0 h -428 A 44.27,44.27 0 0 0 0,44.27 v 265.64 a 44.27,44.27 0 0 0 44.27,44.28 h 428 a 44.28,44.28 0 0 0 44.28,-44.28 V 44.27 A 44.28,44.28 0 0 0 472.25,0 Z m -20.91,65.71 -188.9,118.07 a 7.92,7.92 0 0 1 -8.35,0 L 65.19,65.71 A 7.88,7.88 0 1 1 73.54,52.35 L 258.26,167.8 443,52.35 a 7.88,7.88 0 1 1 8.35,13.36 z" />
    </g>
  </g>
</svg>
